<?xml version="1.0" encoding="UTF-8" standalone="no"?><!DOCTYPE svg PUBLIC "-//W3C//DTD SVG 1.1//EN" "http://www.w3.org/Graphics/SVG/1.1/DTD/svg11.dtd"><svg width="100%" height="100%" viewBox="0 0 2332 2332" version="1.1" xmlns="http://www.w3.org/2000/svg" xmlns:xlink="http://www.w3.org/1999/xlink" xml:space="preserve" xmlns:serif="http://www.serif.com/" style="fill-rule:evenodd;clip-rule:evenodd;stroke-linejoin:round;stroke-miterlimit:2;"><path d="M154.353,1109.62c243.835,-259.247 502.219,-470.003 835.872,-429.878l-148.203,-258.384c-234.416,-53.716 -518,101.066 -842.469,429.244l154.8,259.018Z"/><path d="M245.7,1267.11l154.797,259.018c693.913,122.732 973.378,-951.843 1674.58,-866.143l-146.64,-251.578c-628.579,-179.547 -996.132,954.506 -1682.74,858.703Z" style="fill:#800000;"/><path d="M2176.9,823.933c-243.837,259.247 -502.219,470.003 -835.872,429.878l148.2,258.384c234.419,53.713 518,-101.065 842.469,-429.243l-154.797,-259.019Z"/><g transform="matrix(1,0,0,0.750511,0,-33.5251)"><g transform="matrix(558.038,0,0,558.038,2062.02,2759.49)"></g><text x="277.414px" y="2759.49px" style="font-family:'IncompleetaLight', 'Incompleeta';font-size:558.038px;">S<tspan x="581.545px 871.167px 1173.07px 1416.93px 1706.55px " y="2759.49px 2759.49px 2759.49px 2759.49px 2759.49px ">ANYAM</tspan></text></g><g transform="matrix(1,0,0,0.750511,0,-35.0844)"><g transform="matrix(558.038,0,0,558.038,2055.77,2753.24)"></g><text x="271.164px" y="2753.24px" style="font-family:'IncompleetaLight', 'Incompleeta';font-size:558.038px;fill:#fff;">S<tspan x="575.295px 864.917px 1166.82px 1410.68px 1700.3px " y="2753.24px 2753.24px 2753.24px 2753.24px 2753.24px ">ANYAM</tspan></text></g></svg>