<?xml version="1.0" encoding="UTF-8" standalone="no"?><!DOCTYPE svg PUBLIC "-//W3C//DTD SVG 1.1//EN" "http://www.w3.org/Graphics/SVG/1.1/DTD/svg11.dtd"><svg width="100%" height="100%" viewBox="0 0 3109 3109" version="1.1" xmlns="http://www.w3.org/2000/svg" xmlns:xlink="http://www.w3.org/1999/xlink" xml:space="preserve" xmlns:serif="http://www.serif.com/" style="fill-rule:evenodd;clip-rule:evenodd;stroke-linejoin:round;stroke-miterlimit:2;"><g><g><g><path d="M636.082,1361.26c221.066,-235.04 455.324,-426.117 757.823,-389.739l-134.365,-234.258c-212.527,-48.7 -469.632,91.629 -763.804,389.164l140.346,234.833Z" style="fill:#2f2f2f;"/></g><g><path d="M718.899,1504.04l140.343,234.833c629.119,111.271 882.49,-862.967 1518.21,-785.269l-132.934,-228.087c-569.891,-162.782 -903.124,865.38 -1525.62,778.523Z" style="fill:#800000;"/></g><g><path d="M2469.78,1102.25c-221.076,235.04 -455.325,426.117 -757.832,389.739l134.362,234.258c212.541,48.697 469.626,-91.629 763.798,-389.164l-140.328,-234.833Z" style="fill:#2f2f2f;"/></g><path d="M252.698,2210.3l-98.904,0c-64.804,0 -117.316,-39.439 -117.316,-88.058c0,-48.636 52.512,-88.052 117.316,-88.052l204.78,-0l-0,-15.353l-204.78,-0c-76.086,-0 -137.764,46.301 -137.764,103.405c-0,57.116 61.678,103.405 137.764,103.405l98.904,0c64.805,0 117.316,39.44 117.316,88.059c-0,48.636 -52.511,88.052 -117.316,88.052l-236.668,0l-0,15.353l236.668,0c76.079,0 137.765,-46.302 137.765,-103.405c-0,-57.11 -61.686,-103.406 -137.765,-103.406Z" style="fill-rule:nonzero;"/><path d="M703.668,2018.6l-236.661,-0l0,15.353l236.661,-0c64.812,-0 117.324,39.434 117.324,88.052c-0,48.636 -52.512,88.047 -117.324,88.047l-236.661,-0l0,206.721l20.449,0l0,-191.363l216.212,0c76.095,0 137.772,-46.295 137.772,-103.405c-0.023,-57.116 -61.677,-103.405 -137.772,-103.405Z" style="fill-rule:nonzero;"/><path d="M1030.29,2018.86l-112.302,0l-0,15.347l112.302,0c135.167,0.03 244.769,82.287 244.769,183.731c0,101.438 -109.57,183.719 -244.769,183.719l-112.302,0l-0,15.347l112.302,0c146.489,-0.017 265.242,-89.136 265.242,-199.066c-0,-109.941 -118.753,-199.06 -265.242,-199.078Z" style="fill-rule:nonzero;"/><path d="M1745.99,2417.01l0,-15.347l-373.999,0l0,15.347l373.999,0Zm0,-382.82l0,-15.353l-373.999,-0l0,15.353l373.999,-0Zm-63.044,191.457l0,-15.347l-310.955,0l0,15.347l310.955,0Z" style="fill-rule:nonzero;"/><path d="M2208.41,2018.83l-182.231,375.751l-182.222,-375.751l-21.744,-0l193.095,398.203l21.783,-0l193.094,-398.203l-21.775,-0Z" style="fill-rule:nonzero;"/><path d="M2514.51,2018.83l-24.87,-0l-183.099,199.107l183.099,199.066l24.87,0l-183.138,-199.066l183.138,-199.107Z" style="fill-rule:nonzero;"/><rect x="2613.51" y="2018.83" width="20.457" height="398.173"/><path d="M2732.51,2018.83l-0,15.353l176.767,-0l-0,382.82l20.464,0l0,-382.82l176.767,-0l0,-15.353l-373.998,-0Z" style="fill-rule:nonzero;"/><path d="M240.847,2198.45l-98.904,-0c-64.804,-0 -117.315,-39.44 -117.315,-88.059c-0,-48.636 52.511,-88.052 117.315,-88.052l204.78,-0l-0,-15.353l-204.78,-0c-76.086,-0 -137.764,46.302 -137.764,103.405c-0,57.116 61.678,103.405 137.764,103.405l98.904,0c64.805,0 117.316,39.44 117.316,88.059c0,48.636 -52.511,88.052 -117.316,88.052l-236.668,0l-0,15.353l236.668,0c76.079,0 137.765,-46.301 137.765,-103.405c-0,-57.11 -61.686,-103.405 -137.765,-103.405Z" style="fill:#fff;fill-rule:nonzero;"/><path d="M691.817,2006.75l-236.661,-0l0,15.353l236.661,-0c64.812,-0 117.324,39.434 117.324,88.052c-0,48.636 -52.512,88.047 -117.324,88.047l-236.661,-0l0,206.721l20.449,0l0,-191.363l216.212,0c76.095,0 137.772,-46.295 137.772,-103.405c-0.023,-57.115 -61.677,-103.405 -137.772,-103.405Z" style="fill:#fff;fill-rule:nonzero;"/><path d="M1018.44,2007.01l-112.302,-0l0,15.347l112.302,-0c135.167,0.029 244.769,82.286 244.769,183.73c0,101.438 -109.57,183.719 -244.769,183.719l-112.302,0l0,15.347l112.302,0c146.489,-0.017 265.242,-89.136 265.242,-199.066c-0,-109.941 -118.753,-199.06 -265.242,-199.077Z" style="fill:#fff;fill-rule:nonzero;"/><path d="M1734.14,2405.16l0,-15.347l-373.999,0l0,15.347l373.999,0Zm0,-382.82l0,-15.353l-373.999,-0l0,15.353l373.999,-0Zm-63.044,191.457l0,-15.346l-310.955,-0l0,15.346l310.955,0Z" style="fill:#fff;fill-rule:nonzero;"/><path d="M2196.56,2006.98l-182.231,375.751l-182.222,-375.751l-21.744,-0l193.095,398.203l21.783,-0l193.094,-398.203l-21.775,-0Z" style="fill:#fff;fill-rule:nonzero;"/><path d="M2502.66,2006.98l-24.871,-0l-183.099,199.107l183.099,199.066l24.871,0l-183.139,-199.066l183.139,-199.107Z" style="fill:#fff;fill-rule:nonzero;"/><rect x="2601.66" y="2006.98" width="20.457" height="398.173" style="fill:#fff;"/><path d="M2720.66,2006.98l-0,15.353l176.767,-0l-0,382.82l20.464,0l0,-382.82l176.768,-0l-0,-15.353l-373.999,-0Z" style="fill:#fff;fill-rule:nonzero;"/></g></g></svg>