<?xml version="1.0" encoding="UTF-8" standalone="no"?>
<!DOCTYPE svg PUBLIC "-//W3C//DTD SVG 1.1//EN" "http://www.w3.org/Graphics/SVG/1.1/DTD/svg11.dtd">
<svg width="100%" height="100%" viewBox="0 0 746 746" version="1.1" xmlns="http://www.w3.org/2000/svg" xmlns:xlink="http://www.w3.org/1999/xlink" xml:space="preserve" xmlns:serif="http://www.serif.com/" style="fill-rule:evenodd;clip-rule:evenodd;stroke-linejoin:round;stroke-miterlimit:2;">
    <g transform="matrix(0.478141,0,0,0.478141,194.028,169.887)">
        <g transform="matrix(1,0,0,1,-466.999,-167.409)">
            <path d="M516.392,522.488C594.419,439.529 677.102,372.087 783.871,384.927L736.446,302.244C661.433,285.055 570.686,334.585 466.856,439.602L516.392,522.488Z" style="fill:rgb(47,47,47);"/>
        </g>
        <g transform="matrix(1,0,0,1,-466.999,-167.409)">
            <path d="M545.623,572.883L595.158,655.769C817.21,695.043 906.639,351.179 1131.02,378.603L1084.1,298.098C882.953,240.643 765.336,603.54 545.623,572.883Z" style="fill:rgb(128,0,0);"/>
        </g>
        <g transform="matrix(1,0,0,1,-466.999,-167.409)">
            <path d="M1163.61,431.067C1085.58,514.026 1002.9,581.468 896.128,568.628L943.552,651.311C1018.57,668.499 1109.31,618.97 1213.14,513.953L1163.61,431.067Z" style="fill:rgb(47,47,47);"/>
        </g>
    </g>
    <g transform="matrix(1.33243,0,0,1,-50.6195,-177.162)">
        <path d="M152.776,660.113L140.249,660.113C132.041,660.113 125.39,653.457 125.39,645.252C125.39,637.044 132.041,630.392 140.249,630.392L166.186,630.392L166.186,627.801L140.249,627.801C130.612,627.801 122.8,635.615 122.8,645.252C122.8,654.891 130.612,662.703 140.249,662.703L152.776,662.703C160.984,662.703 167.635,669.359 167.635,677.564C167.635,685.772 160.984,692.424 152.776,692.424L122.8,692.424L122.8,695.015L152.776,695.015C162.412,695.015 170.225,687.201 170.225,677.564C170.225,667.926 162.412,660.113 152.776,660.113Z" style="fill-rule:nonzero;"/>
        <path d="M209.895,627.762L179.92,627.762L179.92,630.353L209.895,630.353C218.104,630.353 224.755,637.008 224.755,645.213C224.755,653.421 218.104,660.072 209.895,660.072L179.92,660.072L179.92,694.959L182.51,694.959L182.51,662.664L209.895,662.664C219.533,662.664 227.345,654.851 227.345,645.213C227.342,635.574 219.533,627.762 209.895,627.762Z" style="fill-rule:nonzero;"/>
        <path d="M251.264,627.806L237.04,627.806L237.04,630.396L251.264,630.396C268.384,630.401 282.266,644.283 282.266,661.403C282.266,678.522 268.388,692.408 251.264,692.408L237.04,692.408L237.04,694.998L251.264,694.998C269.818,694.995 284.859,679.955 284.859,661.403C284.859,642.849 269.818,627.809 251.264,627.806Z" style="fill-rule:nonzero;"/>
        <path d="M341.914,694.998L341.914,692.408L294.544,692.408L294.544,694.998L341.914,694.998ZM341.914,630.392L341.914,627.801L294.544,627.801L294.544,630.392L341.914,630.392ZM333.929,662.703L333.929,660.113L294.544,660.113L294.544,662.703L333.929,662.703Z" style="fill-rule:nonzero;"/>
        <path d="M400.483,627.801L377.402,691.214L354.322,627.801L351.568,627.801L376.025,695.003L378.784,695.003L403.241,627.801L400.483,627.801Z" style="fill-rule:nonzero;"/>
        <path d="M439.253,627.801L436.103,627.801L412.912,661.403L436.103,694.998L439.253,694.998L416.057,661.403L439.253,627.801Z" style="fill-rule:nonzero;"/>
        <rect x="451.792" y="627.801" width="2.591" height="67.197" style="fill-rule:nonzero;"/>
        <path d="M466.864,627.801L466.864,630.392L489.253,630.392L489.253,694.998L491.845,694.998L491.845,630.392L514.234,630.392L514.234,627.801L466.864,627.801Z" style="fill-rule:nonzero;"/>
    </g>
    <g transform="matrix(1.33243,0,0,1,-52.6195,-179.162)">
        <path d="M152.776,660.113L140.249,660.113C132.041,660.113 125.39,653.457 125.39,645.252C125.39,637.044 132.041,630.392 140.249,630.392L166.186,630.392L166.186,627.801L140.249,627.801C130.612,627.801 122.8,635.615 122.8,645.252C122.8,654.891 130.612,662.703 140.249,662.703L152.776,662.703C160.984,662.703 167.635,669.359 167.635,677.564C167.635,685.772 160.984,692.424 152.776,692.424L122.8,692.424L122.8,695.015L152.776,695.015C162.412,695.015 170.225,687.201 170.225,677.564C170.225,667.926 162.412,660.113 152.776,660.113Z" style="fill:white;fill-rule:nonzero;"/>
        <path d="M209.895,627.762L179.92,627.762L179.92,630.353L209.895,630.353C218.104,630.353 224.755,637.008 224.755,645.213C224.755,653.421 218.104,660.072 209.895,660.072L179.92,660.072L179.92,694.959L182.51,694.959L182.51,662.664L209.895,662.664C219.533,662.664 227.345,654.851 227.345,645.213C227.342,635.574 219.533,627.762 209.895,627.762Z" style="fill:white;fill-rule:nonzero;"/>
        <path d="M251.264,627.806L237.04,627.806L237.04,630.396L251.264,630.396C268.384,630.401 282.266,644.283 282.266,661.403C282.266,678.522 268.388,692.408 251.264,692.408L237.04,692.408L237.04,694.998L251.264,694.998C269.818,694.995 284.859,679.955 284.859,661.403C284.859,642.849 269.818,627.809 251.264,627.806Z" style="fill:white;fill-rule:nonzero;"/>
        <path d="M341.914,694.998L341.914,692.408L294.544,692.408L294.544,694.998L341.914,694.998ZM341.914,630.392L341.914,627.801L294.544,627.801L294.544,630.392L341.914,630.392ZM333.929,662.703L333.929,660.113L294.544,660.113L294.544,662.703L333.929,662.703Z" style="fill:white;fill-rule:nonzero;"/>
        <path d="M400.483,627.801L377.402,691.214L354.322,627.801L351.568,627.801L376.025,695.003L378.784,695.003L403.241,627.801L400.483,627.801Z" style="fill:white;fill-rule:nonzero;"/>
        <path d="M439.253,627.801L436.103,627.801L412.912,661.403L436.103,694.998L439.253,694.998L416.057,661.403L439.253,627.801Z" style="fill:white;fill-rule:nonzero;"/>
        <rect x="451.792" y="627.801" width="2.591" height="67.197" style="fill:white;fill-rule:nonzero;"/>
        <path d="M466.864,627.801L466.864,630.392L489.253,630.392L489.253,694.998L491.845,694.998L491.845,630.392L514.234,630.392L514.234,627.801L466.864,627.801Z" style="fill:white;fill-rule:nonzero;"/>
    </g>
</svg>
